<?xml version="1.0" encoding="utf-8" standalone="no"?>
<!DOCTYPE svg PUBLIC "-//W3C//DTD SVG 1.1//EN"
  "http://www.w3.org/Graphics/SVG/1.1/DTD/svg11.dtd">
<svg xmlns:xlink="http://www.w3.org/1999/xlink" width="518.4pt" height="259.2pt" viewBox="0 0 518.4 259.2" xmlns="http://www.w3.org/2000/svg" version="1.1">
 <metadata>
  <rdf:RDF xmlns:dc="http://purl.org/dc/elements/1.1/" xmlns:cc="http://creativecommons.org/ns#" xmlns:rdf="http://www.w3.org/1999/02/22-rdf-syntax-ns#">
   <cc:Work>
    <dc:type rdf:resource="http://purl.org/dc/dcmitype/StillImage"/>
    <dc:date>2026-06-05T18:44:53.352312</dc:date>
    <dc:format>image/svg+xml</dc:format>
    <dc:creator>
     <cc:Agent>
      <dc:title>Matplotlib v3.6.3, https://matplotlib.org/</dc:title>
     </cc:Agent>
    </dc:creator>
   </cc:Work>
  </rdf:RDF>
 </metadata>
 <defs>
  <style type="text/css">*{stroke-linejoin: round; stroke-linecap: butt}</style>
 </defs>
 <g id="figure_1">
  <g id="patch_1">
   <path d="M 0 259.2 
L 518.4 259.2 
L 518.4 0 
L 0 0 
z
" style="fill: #ffffff"/>
  </g>
  <g id="axes_1">
   <g id="patch_2">
    <path d="M 38.285577 217.461538 
L 501.604949 217.461538 
L 501.604949 25.661538 
L 38.285577 25.661538 
z
" style="fill: #ffffff"/>
   </g>
   <g id="matplotlib.axis_1">
    <g id="xtick_1">
     <g id="line2d_1">
      <path d="M 59.135054 217.461538 
L 59.135054 25.661538 
" clip-path="url(#pd65812e660)" style="fill: none; stroke: #b0b0b0; stroke-opacity: 0.25; stroke-width: 0.8; stroke-linecap: square"/>
     </g>
     <g id="line2d_2">
      <defs>
       <path id="m1c503ae44b" d="M 0 0 
L 0 3.5 
" style="stroke: #000000; stroke-width: 0.8"/>
      </defs>
      <g>
       <use xlink:href="#m1c503ae44b" x="59.135054" y="217.461538" style="stroke: #000000; stroke-width: 0.8"/>
      </g>
     </g>
     <g id="text_1">
      <!-- 0 -->
      <g transform="translate(55.953804 232.059976) scale(0.1 -0.1)">
       <defs>
        <path id="DejaVuSans-30" d="M 2034 4250 
Q 1547 4250 1301 3770 
Q 1056 3291 1056 2328 
Q 1056 1369 1301 889 
Q 1547 409 2034 409 
Q 2525 409 2770 889 
Q 3016 1369 3016 2328 
Q 3016 3291 2770 3770 
Q 2525 4250 2034 4250 
z
M 2034 4750 
Q 2819 4750 3233 4129 
Q 3647 3509 3647 2328 
Q 3647 1150 3233 529 
Q 2819 -91 2034 -91 
Q 1250 -91 836 529 
Q 422 1150 422 2328 
Q 422 3509 836 4129 
Q 1250 4750 2034 4750 
z
" transform="scale(0.015625)"/>
       </defs>
       <use xlink:href="#DejaVuSans-30"/>
      </g>
     </g>
    </g>
    <g id="xtick_2">
     <g id="line2d_3">
      <path d="M 122.283394 217.461538 
L 122.283394 25.661538 
" clip-path="url(#pd65812e660)" style="fill: none; stroke: #b0b0b0; stroke-opacity: 0.25; stroke-width: 0.8; stroke-linecap: square"/>
     </g>
     <g id="line2d_4">
      <g>
       <use xlink:href="#m1c503ae44b" x="122.283394" y="217.461538" style="stroke: #000000; stroke-width: 0.8"/>
      </g>
     </g>
     <g id="text_2">
      <!-- 10 -->
      <g transform="translate(115.920894 232.059976) scale(0.1 -0.1)">
       <defs>
        <path id="DejaVuSans-31" d="M 794 531 
L 1825 531 
L 1825 4091 
L 703 3866 
L 703 4441 
L 1819 4666 
L 2450 4666 
L 2450 531 
L 3481 531 
L 3481 0 
L 794 0 
L 794 531 
z
" transform="scale(0.015625)"/>
       </defs>
       <use xlink:href="#DejaVuSans-31"/>
       <use xlink:href="#DejaVuSans-30" x="63.623047"/>
      </g>
     </g>
    </g>
    <g id="xtick_3">
     <g id="line2d_5">
      <path d="M 185.431734 217.461538 
L 185.431734 25.661538 
" clip-path="url(#pd65812e660)" style="fill: none; stroke: #b0b0b0; stroke-opacity: 0.25; stroke-width: 0.8; stroke-linecap: square"/>
     </g>
     <g id="line2d_6">
      <g>
       <use xlink:href="#m1c503ae44b" x="185.431734" y="217.461538" style="stroke: #000000; stroke-width: 0.8"/>
      </g>
     </g>
     <g id="text_3">
      <!-- 20 -->
      <g transform="translate(179.069234 232.059976) scale(0.1 -0.1)">
       <defs>
        <path id="DejaVuSans-32" d="M 1228 531 
L 3431 531 
L 3431 0 
L 469 0 
L 469 531 
Q 828 903 1448 1529 
Q 2069 2156 2228 2338 
Q 2531 2678 2651 2914 
Q 2772 3150 2772 3378 
Q 2772 3750 2511 3984 
Q 2250 4219 1831 4219 
Q 1534 4219 1204 4116 
Q 875 4013 500 3803 
L 500 4441 
Q 881 4594 1212 4672 
Q 1544 4750 1819 4750 
Q 2544 4750 2975 4387 
Q 3406 4025 3406 3419 
Q 3406 3131 3298 2873 
Q 3191 2616 2906 2266 
Q 2828 2175 2409 1742 
Q 1991 1309 1228 531 
z
" transform="scale(0.015625)"/>
       </defs>
       <use xlink:href="#DejaVuSans-32"/>
       <use xlink:href="#DejaVuSans-30" x="63.623047"/>
      </g>
     </g>
    </g>
    <g id="xtick_4">
     <g id="line2d_7">
      <path d="M 248.580075 217.461538 
L 248.580075 25.661538 
" clip-path="url(#pd65812e660)" style="fill: none; stroke: #b0b0b0; stroke-opacity: 0.25; stroke-width: 0.8; stroke-linecap: square"/>
     </g>
     <g id="line2d_8">
      <g>
       <use xlink:href="#m1c503ae44b" x="248.580075" y="217.461538" style="stroke: #000000; stroke-width: 0.8"/>
      </g>
     </g>
     <g id="text_4">
      <!-- 30 -->
      <g transform="translate(242.217575 232.059976) scale(0.1 -0.1)">
       <defs>
        <path id="DejaVuSans-33" d="M 2597 2516 
Q 3050 2419 3304 2112 
Q 3559 1806 3559 1356 
Q 3559 666 3084 287 
Q 2609 -91 1734 -91 
Q 1441 -91 1130 -33 
Q 819 25 488 141 
L 488 750 
Q 750 597 1062 519 
Q 1375 441 1716 441 
Q 2309 441 2620 675 
Q 2931 909 2931 1356 
Q 2931 1769 2642 2001 
Q 2353 2234 1838 2234 
L 1294 2234 
L 1294 2753 
L 1863 2753 
Q 2328 2753 2575 2939 
Q 2822 3125 2822 3475 
Q 2822 3834 2567 4026 
Q 2313 4219 1838 4219 
Q 1578 4219 1281 4162 
Q 984 4106 628 3988 
L 628 4550 
Q 988 4650 1302 4700 
Q 1616 4750 1894 4750 
Q 2613 4750 3031 4423 
Q 3450 4097 3450 3541 
Q 3450 3153 3228 2886 
Q 3006 2619 2597 2516 
z
" transform="scale(0.015625)"/>
       </defs>
       <use xlink:href="#DejaVuSans-33"/>
       <use xlink:href="#DejaVuSans-30" x="63.623047"/>
      </g>
     </g>
    </g>
    <g id="xtick_5">
     <g id="line2d_9">
      <path d="M 311.728415 217.461538 
L 311.728415 25.661538 
" clip-path="url(#pd65812e660)" style="fill: none; stroke: #b0b0b0; stroke-opacity: 0.25; stroke-width: 0.8; stroke-linecap: square"/>
     </g>
     <g id="line2d_10">
      <g>
       <use xlink:href="#m1c503ae44b" x="311.728415" y="217.461538" style="stroke: #000000; stroke-width: 0.8"/>
      </g>
     </g>
     <g id="text_5">
      <!-- 40 -->
      <g transform="translate(305.365915 232.059976) scale(0.1 -0.1)">
       <defs>
        <path id="DejaVuSans-34" d="M 2419 4116 
L 825 1625 
L 2419 1625 
L 2419 4116 
z
M 2253 4666 
L 3047 4666 
L 3047 1625 
L 3713 1625 
L 3713 1100 
L 3047 1100 
L 3047 0 
L 2419 0 
L 2419 1100 
L 313 1100 
L 313 1709 
L 2253 4666 
z
" transform="scale(0.015625)"/>
       </defs>
       <use xlink:href="#DejaVuSans-34"/>
       <use xlink:href="#DejaVuSans-30" x="63.623047"/>
      </g>
     </g>
    </g>
    <g id="xtick_6">
     <g id="line2d_11">
      <path d="M 374.876755 217.461538 
L 374.876755 25.661538 
" clip-path="url(#pd65812e660)" style="fill: none; stroke: #b0b0b0; stroke-opacity: 0.25; stroke-width: 0.8; stroke-linecap: square"/>
     </g>
     <g id="line2d_12">
      <g>
       <use xlink:href="#m1c503ae44b" x="374.876755" y="217.461538" style="stroke: #000000; stroke-width: 0.8"/>
      </g>
     </g>
     <g id="text_6">
      <!-- 50 -->
      <g transform="translate(368.514255 232.059976) scale(0.1 -0.1)">
       <defs>
        <path id="DejaVuSans-35" d="M 691 4666 
L 3169 4666 
L 3169 4134 
L 1269 4134 
L 1269 2991 
Q 1406 3038 1543 3061 
Q 1681 3084 1819 3084 
Q 2600 3084 3056 2656 
Q 3513 2228 3513 1497 
Q 3513 744 3044 326 
Q 2575 -91 1722 -91 
Q 1428 -91 1123 -41 
Q 819 9 494 109 
L 494 744 
Q 775 591 1075 516 
Q 1375 441 1709 441 
Q 2250 441 2565 725 
Q 2881 1009 2881 1497 
Q 2881 1984 2565 2268 
Q 2250 2553 1709 2553 
Q 1456 2553 1204 2497 
Q 953 2441 691 2322 
L 691 4666 
z
" transform="scale(0.015625)"/>
       </defs>
       <use xlink:href="#DejaVuSans-35"/>
       <use xlink:href="#DejaVuSans-30" x="63.623047"/>
      </g>
     </g>
    </g>
    <g id="xtick_7">
     <g id="line2d_13">
      <path d="M 438.025095 217.461538 
L 438.025095 25.661538 
" clip-path="url(#pd65812e660)" style="fill: none; stroke: #b0b0b0; stroke-opacity: 0.25; stroke-width: 0.8; stroke-linecap: square"/>
     </g>
     <g id="line2d_14">
      <g>
       <use xlink:href="#m1c503ae44b" x="438.025095" y="217.461538" style="stroke: #000000; stroke-width: 0.8"/>
      </g>
     </g>
     <g id="text_7">
      <!-- 60 -->
      <g transform="translate(431.662595 232.059976) scale(0.1 -0.1)">
       <defs>
        <path id="DejaVuSans-36" d="M 2113 2584 
Q 1688 2584 1439 2293 
Q 1191 2003 1191 1497 
Q 1191 994 1439 701 
Q 1688 409 2113 409 
Q 2538 409 2786 701 
Q 3034 994 3034 1497 
Q 3034 2003 2786 2293 
Q 2538 2584 2113 2584 
z
M 3366 4563 
L 3366 3988 
Q 3128 4100 2886 4159 
Q 2644 4219 2406 4219 
Q 1781 4219 1451 3797 
Q 1122 3375 1075 2522 
Q 1259 2794 1537 2939 
Q 1816 3084 2150 3084 
Q 2853 3084 3261 2657 
Q 3669 2231 3669 1497 
Q 3669 778 3244 343 
Q 2819 -91 2113 -91 
Q 1303 -91 875 529 
Q 447 1150 447 2328 
Q 447 3434 972 4092 
Q 1497 4750 2381 4750 
Q 2619 4750 2861 4703 
Q 3103 4656 3366 4563 
z
" transform="scale(0.015625)"/>
       </defs>
       <use xlink:href="#DejaVuSans-36"/>
       <use xlink:href="#DejaVuSans-30" x="63.623047"/>
      </g>
     </g>
    </g>
    <g id="xtick_8">
     <g id="line2d_15">
      <path d="M 501.173436 217.461538 
L 501.173436 25.661538 
" clip-path="url(#pd65812e660)" style="fill: none; stroke: #b0b0b0; stroke-opacity: 0.25; stroke-width: 0.8; stroke-linecap: square"/>
     </g>
     <g id="line2d_16">
      <g>
       <use xlink:href="#m1c503ae44b" x="501.173436" y="217.461538" style="stroke: #000000; stroke-width: 0.8"/>
      </g>
     </g>
     <g id="text_8">
      <!-- 70 -->
      <g transform="translate(494.810936 232.059976) scale(0.1 -0.1)">
       <defs>
        <path id="DejaVuSans-37" d="M 525 4666 
L 3525 4666 
L 3525 4397 
L 1831 0 
L 1172 0 
L 2766 4134 
L 525 4134 
L 525 4666 
z
" transform="scale(0.015625)"/>
       </defs>
       <use xlink:href="#DejaVuSans-37"/>
       <use xlink:href="#DejaVuSans-30" x="63.623047"/>
      </g>
     </g>
    </g>
    <g id="text_9">
     <!-- Minutos desde inicio de HPL -->
     <g transform="translate(199.861669 245.738101) scale(0.1 -0.1)">
      <defs>
       <path id="DejaVuSans-4d" d="M 628 4666 
L 1569 4666 
L 2759 1491 
L 3956 4666 
L 4897 4666 
L 4897 0 
L 4281 0 
L 4281 4097 
L 3078 897 
L 2444 897 
L 1241 4097 
L 1241 0 
L 628 0 
L 628 4666 
z
" transform="scale(0.015625)"/>
       <path id="DejaVuSans-69" d="M 603 3500 
L 1178 3500 
L 1178 0 
L 603 0 
L 603 3500 
z
M 603 4863 
L 1178 4863 
L 1178 4134 
L 603 4134 
L 603 4863 
z
" transform="scale(0.015625)"/>
       <path id="DejaVuSans-6e" d="M 3513 2113 
L 3513 0 
L 2938 0 
L 2938 2094 
Q 2938 2591 2744 2837 
Q 2550 3084 2163 3084 
Q 1697 3084 1428 2787 
Q 1159 2491 1159 1978 
L 1159 0 
L 581 0 
L 581 3500 
L 1159 3500 
L 1159 2956 
Q 1366 3272 1645 3428 
Q 1925 3584 2291 3584 
Q 2894 3584 3203 3211 
Q 3513 2838 3513 2113 
z
" transform="scale(0.015625)"/>
       <path id="DejaVuSans-75" d="M 544 1381 
L 544 3500 
L 1119 3500 
L 1119 1403 
Q 1119 906 1312 657 
Q 1506 409 1894 409 
Q 2359 409 2629 706 
Q 2900 1003 2900 1516 
L 2900 3500 
L 3475 3500 
L 3475 0 
L 2900 0 
L 2900 538 
Q 2691 219 2414 64 
Q 2138 -91 1772 -91 
Q 1169 -91 856 284 
Q 544 659 544 1381 
z
M 1991 3584 
L 1991 3584 
z
" transform="scale(0.015625)"/>
       <path id="DejaVuSans-74" d="M 1172 4494 
L 1172 3500 
L 2356 3500 
L 2356 3053 
L 1172 3053 
L 1172 1153 
Q 1172 725 1289 603 
Q 1406 481 1766 481 
L 2356 481 
L 2356 0 
L 1766 0 
Q 1100 0 847 248 
Q 594 497 594 1153 
L 594 3053 
L 172 3053 
L 172 3500 
L 594 3500 
L 594 4494 
L 1172 4494 
z
" transform="scale(0.015625)"/>
       <path id="DejaVuSans-6f" d="M 1959 3097 
Q 1497 3097 1228 2736 
Q 959 2375 959 1747 
Q 959 1119 1226 758 
Q 1494 397 1959 397 
Q 2419 397 2687 759 
Q 2956 1122 2956 1747 
Q 2956 2369 2687 2733 
Q 2419 3097 1959 3097 
z
M 1959 3584 
Q 2709 3584 3137 3096 
Q 3566 2609 3566 1747 
Q 3566 888 3137 398 
Q 2709 -91 1959 -91 
Q 1206 -91 779 398 
Q 353 888 353 1747 
Q 353 2609 779 3096 
Q 1206 3584 1959 3584 
z
" transform="scale(0.015625)"/>
       <path id="DejaVuSans-73" d="M 2834 3397 
L 2834 2853 
Q 2591 2978 2328 3040 
Q 2066 3103 1784 3103 
Q 1356 3103 1142 2972 
Q 928 2841 928 2578 
Q 928 2378 1081 2264 
Q 1234 2150 1697 2047 
L 1894 2003 
Q 2506 1872 2764 1633 
Q 3022 1394 3022 966 
Q 3022 478 2636 193 
Q 2250 -91 1575 -91 
Q 1294 -91 989 -36 
Q 684 19 347 128 
L 347 722 
Q 666 556 975 473 
Q 1284 391 1588 391 
Q 1994 391 2212 530 
Q 2431 669 2431 922 
Q 2431 1156 2273 1281 
Q 2116 1406 1581 1522 
L 1381 1569 
Q 847 1681 609 1914 
Q 372 2147 372 2553 
Q 372 3047 722 3315 
Q 1072 3584 1716 3584 
Q 2034 3584 2315 3537 
Q 2597 3491 2834 3397 
z
" transform="scale(0.015625)"/>
       <path id="DejaVuSans-20" transform="scale(0.015625)"/>
       <path id="DejaVuSans-64" d="M 2906 2969 
L 2906 4863 
L 3481 4863 
L 3481 0 
L 2906 0 
L 2906 525 
Q 2725 213 2448 61 
Q 2172 -91 1784 -91 
Q 1150 -91 751 415 
Q 353 922 353 1747 
Q 353 2572 751 3078 
Q 1150 3584 1784 3584 
Q 2172 3584 2448 3432 
Q 2725 3281 2906 2969 
z
M 947 1747 
Q 947 1113 1208 752 
Q 1469 391 1925 391 
Q 2381 391 2643 752 
Q 2906 1113 2906 1747 
Q 2906 2381 2643 2742 
Q 2381 3103 1925 3103 
Q 1469 3103 1208 2742 
Q 947 2381 947 1747 
z
" transform="scale(0.015625)"/>
       <path id="DejaVuSans-65" d="M 3597 1894 
L 3597 1613 
L 953 1613 
Q 991 1019 1311 708 
Q 1631 397 2203 397 
Q 2534 397 2845 478 
Q 3156 559 3463 722 
L 3463 178 
Q 3153 47 2828 -22 
Q 2503 -91 2169 -91 
Q 1331 -91 842 396 
Q 353 884 353 1716 
Q 353 2575 817 3079 
Q 1281 3584 2069 3584 
Q 2775 3584 3186 3129 
Q 3597 2675 3597 1894 
z
M 3022 2063 
Q 3016 2534 2758 2815 
Q 2500 3097 2075 3097 
Q 1594 3097 1305 2825 
Q 1016 2553 972 2059 
L 3022 2063 
z
" transform="scale(0.015625)"/>
       <path id="DejaVuSans-63" d="M 3122 3366 
L 3122 2828 
Q 2878 2963 2633 3030 
Q 2388 3097 2138 3097 
Q 1578 3097 1268 2742 
Q 959 2388 959 1747 
Q 959 1106 1268 751 
Q 1578 397 2138 397 
Q 2388 397 2633 464 
Q 2878 531 3122 666 
L 3122 134 
Q 2881 22 2623 -34 
Q 2366 -91 2075 -91 
Q 1284 -91 818 406 
Q 353 903 353 1747 
Q 353 2603 823 3093 
Q 1294 3584 2113 3584 
Q 2378 3584 2631 3529 
Q 2884 3475 3122 3366 
z
" transform="scale(0.015625)"/>
       <path id="DejaVuSans-48" d="M 628 4666 
L 1259 4666 
L 1259 2753 
L 3553 2753 
L 3553 4666 
L 4184 4666 
L 4184 0 
L 3553 0 
L 3553 2222 
L 1259 2222 
L 1259 0 
L 628 0 
L 628 4666 
z
" transform="scale(0.015625)"/>
       <path id="DejaVuSans-50" d="M 1259 4147 
L 1259 2394 
L 2053 2394 
Q 2494 2394 2734 2622 
Q 2975 2850 2975 3272 
Q 2975 3691 2734 3919 
Q 2494 4147 2053 4147 
L 1259 4147 
z
M 628 4666 
L 2053 4666 
Q 2838 4666 3239 4311 
Q 3641 3956 3641 3272 
Q 3641 2581 3239 2228 
Q 2838 1875 2053 1875 
L 1259 1875 
L 1259 0 
L 628 0 
L 628 4666 
z
" transform="scale(0.015625)"/>
       <path id="DejaVuSans-4c" d="M 628 4666 
L 1259 4666 
L 1259 531 
L 3531 531 
L 3531 0 
L 628 0 
L 628 4666 
z
" transform="scale(0.015625)"/>
      </defs>
      <use xlink:href="#DejaVuSans-4d"/>
      <use xlink:href="#DejaVuSans-69" x="86.279297"/>
      <use xlink:href="#DejaVuSans-6e" x="114.0625"/>
      <use xlink:href="#DejaVuSans-75" x="177.441406"/>
      <use xlink:href="#DejaVuSans-74" x="240.820312"/>
      <use xlink:href="#DejaVuSans-6f" x="280.029297"/>
      <use xlink:href="#DejaVuSans-73" x="341.210938"/>
      <use xlink:href="#DejaVuSans-20" x="393.310547"/>
      <use xlink:href="#DejaVuSans-64" x="425.097656"/>
      <use xlink:href="#DejaVuSans-65" x="488.574219"/>
      <use xlink:href="#DejaVuSans-73" x="550.097656"/>
      <use xlink:href="#DejaVuSans-64" x="602.197266"/>
      <use xlink:href="#DejaVuSans-65" x="665.673828"/>
      <use xlink:href="#DejaVuSans-20" x="727.197266"/>
      <use xlink:href="#DejaVuSans-69" x="758.984375"/>
      <use xlink:href="#DejaVuSans-6e" x="786.767578"/>
      <use xlink:href="#DejaVuSans-69" x="850.146484"/>
      <use xlink:href="#DejaVuSans-63" x="877.929688"/>
      <use xlink:href="#DejaVuSans-69" x="932.910156"/>
      <use xlink:href="#DejaVuSans-6f" x="960.693359"/>
      <use xlink:href="#DejaVuSans-20" x="1021.875"/>
      <use xlink:href="#DejaVuSans-64" x="1053.662109"/>
      <use xlink:href="#DejaVuSans-65" x="1117.138672"/>
      <use xlink:href="#DejaVuSans-20" x="1178.662109"/>
      <use xlink:href="#DejaVuSans-48" x="1210.449219"/>
      <use xlink:href="#DejaVuSans-50" x="1285.644531"/>
      <use xlink:href="#DejaVuSans-4c" x="1345.947266"/>
     </g>
    </g>
   </g>
   <g id="matplotlib.axis_2">
    <g id="ytick_1">
     <g id="line2d_17">
      <path d="M 38.285577 217.461538 
L 501.604949 217.461538 
" clip-path="url(#pd65812e660)" style="fill: none; stroke: #b0b0b0; stroke-opacity: 0.25; stroke-width: 0.8; stroke-linecap: square"/>
     </g>
     <g id="line2d_18">
      <defs>
       <path id="mf9490a0987" d="M 0 0 
L -3.5 0 
" style="stroke: #000000; stroke-width: 0.8"/>
      </defs>
      <g>
       <use xlink:href="#mf9490a0987" x="38.285577" y="217.461538" style="stroke: #000000; stroke-width: 0.8"/>
      </g>
     </g>
     <g id="text_10">
      <!-- 0 -->
      <g transform="translate(24.923077 221.260757) scale(0.1 -0.1)">
       <use xlink:href="#DejaVuSans-30"/>
      </g>
     </g>
    </g>
    <g id="ytick_2">
     <g id="line2d_19">
      <path d="M 38.285577 181.451212 
L 501.604949 181.451212 
" clip-path="url(#pd65812e660)" style="fill: none; stroke: #b0b0b0; stroke-opacity: 0.25; stroke-width: 0.8; stroke-linecap: square"/>
     </g>
     <g id="line2d_20">
      <g>
       <use xlink:href="#mf9490a0987" x="38.285577" y="181.451212" style="stroke: #000000; stroke-width: 0.8"/>
      </g>
     </g>
     <g id="text_11">
      <!-- 1 -->
      <g transform="translate(24.923077 185.250431) scale(0.1 -0.1)">
       <use xlink:href="#DejaVuSans-31"/>
      </g>
     </g>
    </g>
    <g id="ytick_3">
     <g id="line2d_21">
      <path d="M 38.285577 145.440886 
L 501.604949 145.440886 
" clip-path="url(#pd65812e660)" style="fill: none; stroke: #b0b0b0; stroke-opacity: 0.25; stroke-width: 0.8; stroke-linecap: square"/>
     </g>
     <g id="line2d_22">
      <g>
       <use xlink:href="#mf9490a0987" x="38.285577" y="145.440886" style="stroke: #000000; stroke-width: 0.8"/>
      </g>
     </g>
     <g id="text_12">
      <!-- 2 -->
      <g transform="translate(24.923077 149.240105) scale(0.1 -0.1)">
       <use xlink:href="#DejaVuSans-32"/>
      </g>
     </g>
    </g>
    <g id="ytick_4">
     <g id="line2d_23">
      <path d="M 38.285577 109.43056 
L 501.604949 109.43056 
" clip-path="url(#pd65812e660)" style="fill: none; stroke: #b0b0b0; stroke-opacity: 0.25; stroke-width: 0.8; stroke-linecap: square"/>
     </g>
     <g id="line2d_24">
      <g>
       <use xlink:href="#mf9490a0987" x="38.285577" y="109.43056" style="stroke: #000000; stroke-width: 0.8"/>
      </g>
     </g>
     <g id="text_13">
      <!-- 3 -->
      <g transform="translate(24.923077 113.229779) scale(0.1 -0.1)">
       <use xlink:href="#DejaVuSans-33"/>
      </g>
     </g>
    </g>
    <g id="ytick_5">
     <g id="line2d_25">
      <path d="M 38.285577 73.420234 
L 501.604949 73.420234 
" clip-path="url(#pd65812e660)" style="fill: none; stroke: #b0b0b0; stroke-opacity: 0.25; stroke-width: 0.8; stroke-linecap: square"/>
     </g>
     <g id="line2d_26">
      <g>
       <use xlink:href="#mf9490a0987" x="38.285577" y="73.420234" style="stroke: #000000; stroke-width: 0.8"/>
      </g>
     </g>
     <g id="text_14">
      <!-- 4 -->
      <g transform="translate(24.923077 77.219452) scale(0.1 -0.1)">
       <use xlink:href="#DejaVuSans-34"/>
      </g>
     </g>
    </g>
    <g id="ytick_6">
     <g id="line2d_27">
      <path d="M 38.285577 37.409907 
L 501.604949 37.409907 
" clip-path="url(#pd65812e660)" style="fill: none; stroke: #b0b0b0; stroke-opacity: 0.25; stroke-width: 0.8; stroke-linecap: square"/>
     </g>
     <g id="line2d_28">
      <g>
       <use xlink:href="#mf9490a0987" x="38.285577" y="37.409907" style="stroke: #000000; stroke-width: 0.8"/>
      </g>
     </g>
     <g id="text_15">
      <!-- 5 -->
      <g transform="translate(24.923077 41.209126) scale(0.1 -0.1)">
       <use xlink:href="#DejaVuSans-35"/>
      </g>
     </g>
    </g>
    <g id="text_16">
     <!-- SYS_POWER (kW) -->
     <g transform="translate(18.565264 165.321695) rotate(-90) scale(0.1 -0.1)">
      <defs>
       <path id="DejaVuSans-53" d="M 3425 4513 
L 3425 3897 
Q 3066 4069 2747 4153 
Q 2428 4238 2131 4238 
Q 1616 4238 1336 4038 
Q 1056 3838 1056 3469 
Q 1056 3159 1242 3001 
Q 1428 2844 1947 2747 
L 2328 2669 
Q 3034 2534 3370 2195 
Q 3706 1856 3706 1288 
Q 3706 609 3251 259 
Q 2797 -91 1919 -91 
Q 1588 -91 1214 -16 
Q 841 59 441 206 
L 441 856 
Q 825 641 1194 531 
Q 1563 422 1919 422 
Q 2459 422 2753 634 
Q 3047 847 3047 1241 
Q 3047 1584 2836 1778 
Q 2625 1972 2144 2069 
L 1759 2144 
Q 1053 2284 737 2584 
Q 422 2884 422 3419 
Q 422 4038 858 4394 
Q 1294 4750 2059 4750 
Q 2388 4750 2728 4690 
Q 3069 4631 3425 4513 
z
" transform="scale(0.015625)"/>
       <path id="DejaVuSans-59" d="M -13 4666 
L 666 4666 
L 1959 2747 
L 3244 4666 
L 3922 4666 
L 2272 2222 
L 2272 0 
L 1638 0 
L 1638 2222 
L -13 4666 
z
" transform="scale(0.015625)"/>
       <path id="DejaVuSans-5f" d="M 3263 -1063 
L 3263 -1509 
L -63 -1509 
L -63 -1063 
L 3263 -1063 
z
" transform="scale(0.015625)"/>
       <path id="DejaVuSans-4f" d="M 2522 4238 
Q 1834 4238 1429 3725 
Q 1025 3213 1025 2328 
Q 1025 1447 1429 934 
Q 1834 422 2522 422 
Q 3209 422 3611 934 
Q 4013 1447 4013 2328 
Q 4013 3213 3611 3725 
Q 3209 4238 2522 4238 
z
M 2522 4750 
Q 3503 4750 4090 4092 
Q 4678 3434 4678 2328 
Q 4678 1225 4090 567 
Q 3503 -91 2522 -91 
Q 1538 -91 948 565 
Q 359 1222 359 2328 
Q 359 3434 948 4092 
Q 1538 4750 2522 4750 
z
" transform="scale(0.015625)"/>
       <path id="DejaVuSans-57" d="M 213 4666 
L 850 4666 
L 1831 722 
L 2809 4666 
L 3519 4666 
L 4500 722 
L 5478 4666 
L 6119 4666 
L 4947 0 
L 4153 0 
L 3169 4050 
L 2175 0 
L 1381 0 
L 213 4666 
z
" transform="scale(0.015625)"/>
       <path id="DejaVuSans-45" d="M 628 4666 
L 3578 4666 
L 3578 4134 
L 1259 4134 
L 1259 2753 
L 3481 2753 
L 3481 2222 
L 1259 2222 
L 1259 531 
L 3634 531 
L 3634 0 
L 628 0 
L 628 4666 
z
" transform="scale(0.015625)"/>
       <path id="DejaVuSans-52" d="M 2841 2188 
Q 3044 2119 3236 1894 
Q 3428 1669 3622 1275 
L 4263 0 
L 3584 0 
L 2988 1197 
Q 2756 1666 2539 1819 
Q 2322 1972 1947 1972 
L 1259 1972 
L 1259 0 
L 628 0 
L 628 4666 
L 2053 4666 
Q 2853 4666 3247 4331 
Q 3641 3997 3641 3322 
Q 3641 2881 3436 2590 
Q 3231 2300 2841 2188 
z
M 1259 4147 
L 1259 2491 
L 2053 2491 
Q 2509 2491 2742 2702 
Q 2975 2913 2975 3322 
Q 2975 3731 2742 3939 
Q 2509 4147 2053 4147 
L 1259 4147 
z
" transform="scale(0.015625)"/>
       <path id="DejaVuSans-28" d="M 1984 4856 
Q 1566 4138 1362 3434 
Q 1159 2731 1159 2009 
Q 1159 1288 1364 580 
Q 1569 -128 1984 -844 
L 1484 -844 
Q 1016 -109 783 600 
Q 550 1309 550 2009 
Q 550 2706 781 3412 
Q 1013 4119 1484 4856 
L 1984 4856 
z
" transform="scale(0.015625)"/>
       <path id="DejaVuSans-6b" d="M 581 4863 
L 1159 4863 
L 1159 1991 
L 2875 3500 
L 3609 3500 
L 1753 1863 
L 3688 0 
L 2938 0 
L 1159 1709 
L 1159 0 
L 581 0 
L 581 4863 
z
" transform="scale(0.015625)"/>
       <path id="DejaVuSans-29" d="M 513 4856 
L 1013 4856 
Q 1481 4119 1714 3412 
Q 1947 2706 1947 2009 
Q 1947 1309 1714 600 
Q 1481 -109 1013 -844 
L 513 -844 
Q 928 -128 1133 580 
Q 1338 1288 1338 2009 
Q 1338 2731 1133 3434 
Q 928 4138 513 4856 
z
" transform="scale(0.015625)"/>
      </defs>
      <use xlink:href="#DejaVuSans-53"/>
      <use xlink:href="#DejaVuSans-59" x="63.476562"/>
      <use xlink:href="#DejaVuSans-53" x="124.560547"/>
      <use xlink:href="#DejaVuSans-5f" x="188.037109"/>
      <use xlink:href="#DejaVuSans-50" x="238.037109"/>
      <use xlink:href="#DejaVuSans-4f" x="298.339844"/>
      <use xlink:href="#DejaVuSans-57" x="377.050781"/>
      <use xlink:href="#DejaVuSans-45" x="475.927734"/>
      <use xlink:href="#DejaVuSans-52" x="539.111328"/>
      <use xlink:href="#DejaVuSans-20" x="608.59375"/>
      <use xlink:href="#DejaVuSans-28" x="640.380859"/>
      <use xlink:href="#DejaVuSans-6b" x="679.394531"/>
      <use xlink:href="#DejaVuSans-57" x="737.304688"/>
      <use xlink:href="#DejaVuSans-29" x="836.181641"/>
     </g>
    </g>
   </g>
   <g id="line2d_29">
    <path d="M 59.345548 68.918943 
L 60.082279 66.218168 
L 60.924257 61.716878 
L 62.397718 66.218168 
L 63.134449 62.617136 
L 63.871179 54.514812 
L 64.60791 54.514812 
L 65.976124 47.312747 
L 66.712855 50.91378 
L 67.449585 49.113263 
L 68.186316 49.113263 
L 68.817799 50.91378 
L 69.55453 39.210424 
L 70.186013 44.611973 
L 70.922744 40.110682 
L 71.554228 41.01094 
L 72.185711 41.01094 
L 73.027689 44.611973 
L 73.659172 44.611973 
L 74.395903 47.312747 
L 75.132633 48.213005 
L 75.764117 41.911198 
L 76.500848 51.814038 
L 77.237578 41.911198 
L 77.869062 41.911198 
L 78.711039 39.210424 
L 79.44777 37.409907 
L 80.079253 38.310166 
L 80.815984 41.01094 
L 81.552715 40.110682 
L 82.289445 38.310166 
L 83.026176 37.409907 
L 83.657659 42.811456 
L 84.289143 38.310166 
L 85.131121 36.509649 
L 85.762604 37.409907 
L 86.499335 37.409907 
L 87.130818 39.210424 
L 87.762302 40.110682 
L 88.499032 36.509649 
L 89.130516 39.210424 
L 90.49873 41.01094 
L 91.130213 37.409907 
L 91.866944 37.409907 
L 92.603674 36.509649 
L 93.235158 36.509649 
L 93.971888 38.310166 
L 94.813866 39.210424 
L 95.550597 36.509649 
L 96.392575 36.509649 
L 97.024058 38.310166 
L 97.760789 41.911198 
L 98.497519 40.110682 
L 99.129003 37.409907 
L 99.865733 37.409907 
L 100.602464 33.808875 
L 101.233947 41.911198 
L 101.970678 42.811456 
L 102.707409 50.91378 
L 103.338892 41.01094 
L 104.075623 37.409907 
L 104.707106 35.609391 
L 105.33859 36.509649 
L 106.07532 40.110682 
L 106.706804 39.210424 
L 107.338287 34.709133 
L 108.180265 36.509649 
L 108.811748 41.911198 
L 109.548479 32.908617 
L 110.179962 50.91378 
L 110.916693 35.609391 
L 112.284907 39.210424 
L 113.021638 38.310166 
L 113.758368 40.110682 
L 114.495099 39.210424 
L 115.126582 32.008358 
L 115.758066 34.709133 
L 116.494796 40.110682 
L 117.231527 38.310166 
L 117.86301 34.709133 
L 118.494494 36.509649 
L 119.231224 37.409907 
L 119.862708 36.509649 
L 120.599438 37.409907 
L 121.336169 41.911198 
L 121.967652 35.609391 
L 122.599136 35.609391 
L 123.335867 38.310166 
L 124.704081 40.110682 
L 126.072295 36.509649 
L 126.914272 40.110682 
L 127.651003 33.808875 
L 128.387734 44.611973 
L 129.229712 41.01094 
L 129.861195 40.110682 
L 130.492678 37.409907 
L 131.229409 38.310166 
L 131.860892 37.409907 
L 132.492376 57.215587 
L 133.229107 36.509649 
L 133.86059 37.409907 
L 134.492073 33.808875 
L 135.123557 38.310166 
L 135.860287 40.110682 
L 136.597018 39.210424 
L 137.228501 37.409907 
L 138.070479 32.908617 
L 138.596715 38.310166 
L 139.228199 41.911198 
L 140.070177 41.01094 
L 140.70166 44.611973 
L 141.438391 41.01094 
L 142.069874 35.609391 
L 143.75383 35.609391 
L 144.385313 40.110682 
L 145.122044 38.310166 
L 145.858775 44.611973 
L 146.490258 41.911198 
L 147.121741 43.711714 
L 148.489955 37.409907 
L 149.121439 48.213005 
L 149.858169 33.808875 
L 150.489653 36.509649 
L 151.226383 43.711714 
L 151.963114 34.709133 
L 152.594598 38.310166 
L 153.331328 38.310166 
L 153.962812 48.213005 
L 154.594295 54.514812 
L 155.331026 39.210424 
L 156.593992 37.409907 
L 157.43597 38.310166 
L 158.067454 42.811456 
L 159.014679 41.911198 
L 159.751409 39.210424 
L 160.382893 33.808875 
L 161.014376 37.409907 
L 161.856354 40.110682 
L 162.487837 38.310166 
L 163.856052 38.310166 
L 164.487535 37.409907 
L 165.329513 39.210424 
L 165.960996 41.911198 
L 166.59248 41.01094 
L 167.32921 36.509649 
L 167.960694 37.409907 
L 168.697424 41.911198 
L 169.434155 37.409907 
L 170.065638 40.110682 
L 170.802369 38.310166 
L 171.5391 41.911198 
L 172.170583 39.210424 
L 172.802066 37.409907 
L 173.538797 38.310166 
L 174.17028 42.811456 
L 175.117506 33.808875 
L 175.854236 37.409907 
L 176.590967 38.310166 
L 177.327697 38.310166 
L 177.959181 41.01094 
L 178.695911 41.01094 
L 179.432642 35.609391 
L 180.169373 41.01094 
L 180.800856 33.808875 
L 181.537587 39.210424 
L 182.274317 38.310166 
L 182.905801 36.509649 
L 183.642531 38.310166 
L 184.274015 37.409907 
L 184.905498 37.409907 
L 185.642229 34.709133 
L 187.010443 41.01094 
L 187.641926 41.911198 
L 188.378657 38.310166 
L 189.01014 38.310166 
L 189.852118 39.210424 
L 190.483602 41.01094 
L 191.220332 129.236239 
L 192.06231 33.808875 
L 192.693794 38.310166 
L 193.430524 39.210424 
L 194.167255 36.509649 
L 194.798738 31.1081 
L 195.535469 38.310166 
L 196.166952 36.509649 
L 196.693188 38.310166 
L 197.535166 42.811456 
L 198.16665 41.01094 
L 198.798133 41.01094 
L 199.640111 39.210424 
L 200.271594 33.808875 
L 200.903078 37.409907 
L 201.639808 36.509649 
L 202.376539 41.01094 
L 203.11327 39.210424 
L 203.744753 46.412489 
L 204.376237 41.01094 
L 205.112967 36.509649 
L 205.744451 39.210424 
L 206.481181 40.110682 
L 207.323159 38.310166 
L 208.05989 34.709133 
L 208.691373 42.811456 
L 209.428104 43.711714 
L 210.059587 39.210424 
L 210.796318 41.01094 
L 211.427801 37.409907 
L 212.059285 34.709133 
L 212.796015 41.911198 
L 213.427499 36.509649 
L 214.164229 38.310166 
L 214.90096 38.310166 
L 215.532443 41.911198 
L 216.269174 41.911198 
L 216.900657 43.711714 
L 218.374119 40.110682 
L 219.005602 40.110682 
L 219.637085 41.911198 
L 220.373816 41.911198 
L 221.005299 38.310166 
L 221.636783 42.811456 
L 222.268266 42.811456 
L 223.952222 33.808875 
L 224.688953 36.509649 
L 225.320436 38.310166 
L 226.68865 40.110682 
L 228.162111 40.110682 
L 228.793595 38.310166 
L 229.635573 41.911198 
L 230.267056 40.110682 
L 230.898539 40.110682 
L 231.63527 38.310166 
L 232.266753 35.609391 
L 232.898237 37.409907 
L 233.634968 36.509649 
L 234.266451 36.509649 
L 235.003182 39.210424 
L 235.739912 49.113263 
L 236.371396 41.01094 
L 237.108126 38.310166 
L 237.73961 38.310166 
L 238.371093 39.210424 
L 239.213071 40.110682 
L 240.055049 47.312747 
L 240.791779 41.01094 
L 241.633757 39.210424 
L 242.265241 34.709133 
L 242.896724 34.709133 
L 243.738702 39.210424 
L 244.370185 39.210424 
L 245.001669 50.91378 
L 245.843647 40.110682 
L 247.211861 36.509649 
L 248.580075 44.611973 
L 249.211558 38.310166 
L 249.948289 40.110682 
L 250.579772 43.711714 
L 251.42175 33.808875 
L 252.053233 38.310166 
L 252.684717 44.611973 
L 253.421447 42.811456 
L 254.052931 46.412489 
L 254.789662 44.611973 
L 255.526392 36.509649 
L 256.36837 40.110682 
L 256.999853 35.609391 
L 257.841831 40.110682 
L 258.473315 38.310166 
L 259.210045 41.911198 
L 259.946776 51.814038 
L 260.578259 39.210424 
L 261.31499 41.911198 
L 261.946473 42.811456 
L 262.683204 37.409907 
L 263.314687 38.310166 
L 263.946171 37.409907 
L 264.577654 38.310166 
L 265.419632 39.210424 
L 266.051116 41.01094 
L 266.682599 39.210424 
L 267.314082 34.709133 
L 267.945566 39.210424 
L 268.682296 37.409907 
L 269.31378 34.709133 
L 269.945263 38.310166 
L 270.787241 37.409907 
L 271.523972 37.409907 
L 272.36595 35.609391 
L 273.10268 35.609391 
L 273.734164 36.509649 
L 274.470894 39.210424 
L 275.102378 37.409907 
L 275.839108 36.509649 
L 276.575839 34.709133 
L 277.944053 38.310166 
L 278.680784 37.409907 
L 279.312267 33.808875 
L 280.680481 41.01094 
L 281.311964 37.409907 
L 281.943448 38.310166 
L 282.680178 40.110682 
L 283.311662 39.210424 
L 284.048392 34.709133 
L 284.785123 37.409907 
L 285.416607 39.210424 
L 286.153337 37.409907 
L 286.784821 36.509649 
L 287.626798 40.110682 
L 288.468776 40.110682 
L 289.205507 35.609391 
L 289.83699 37.409907 
L 290.573721 34.709133 
L 291.941935 41.01094 
L 292.573418 40.110682 
L 293.415396 43.711714 
L 294.04688 38.310166 
L 294.78361 34.709133 
L 295.415094 37.409907 
L 296.151824 38.310166 
L 296.783308 44.611973 
L 297.520038 41.911198 
L 298.151522 37.409907 
L 298.888252 41.01094 
L 299.624983 40.110682 
L 300.256466 43.711714 
L 300.88795 41.01094 
L 301.624681 32.908617 
L 302.256164 37.409907 
L 302.992895 41.01094 
L 303.729625 37.409907 
L 304.466356 44.611973 
L 305.097839 39.210424 
L 305.939817 39.210424 
L 306.571301 43.711714 
L 307.308031 40.110682 
L 307.939515 34.709133 
L 308.570998 41.911198 
L 309.307729 35.609391 
L 309.939212 36.509649 
L 310.570695 36.509649 
L 311.412673 50.013522 
L 312.044157 38.310166 
L 312.67564 39.210424 
L 313.412371 34.709133 
L 314.149101 41.01094 
L 314.885832 42.811456 
L 315.517315 40.110682 
L 316.148799 34.709133 
L 316.885529 35.609391 
L 317.517013 42.811456 
L 318.148496 33.808875 
L 318.990474 36.509649 
L 319.832452 35.609391 
L 320.67443 39.210424 
L 321.41116 45.512231 
L 322.042644 42.811456 
L 322.779375 48.213005 
L 323.516105 34.709133 
L 324.779072 36.509649 
L 325.515803 36.509649 
L 326.147286 42.811456 
L 326.884017 32.908617 
L 327.620747 38.310166 
L 328.252231 33.808875 
L 329.620445 40.110682 
L 330.357175 35.609391 
L 330.988659 41.01094 
L 331.620142 40.110682 
L 332.356873 40.110682 
L 332.988356 37.409907 
L 333.61984 35.609391 
L 334.35657 42.811456 
L 334.988054 37.409907 
L 335.619537 39.210424 
L 336.461515 33.808875 
L 337.092998 37.409907 
L 337.829729 36.509649 
L 338.461212 40.110682 
L 339.092696 35.609391 
L 339.829426 32.908617 
L 341.092393 43.711714 
L 341.934371 41.911198 
L 342.565854 39.210424 
L 343.197338 43.711714 
L 344.039316 37.409907 
L 344.776046 36.509649 
L 345.40753 32.908617 
L 346.14426 39.210424 
L 346.775744 40.110682 
L 347.512474 38.310166 
L 348.143958 35.609391 
L 348.775441 40.110682 
L 349.617419 37.409907 
L 350.248903 40.110682 
L 351.722364 31.1081 
L 352.564342 35.609391 
L 353.195825 37.409907 
L 353.932556 40.110682 
L 354.564039 35.609391 
L 355.195523 37.409907 
L 356.0375 32.908617 
L 356.668984 34.709133 
L 357.510962 54.514812 
L 358.142445 40.110682 
L 358.773928 38.310166 
L 359.510659 38.310166 
L 360.142143 48.213005 
L 360.878873 37.409907 
L 361.615604 39.210424 
L 362.247087 39.210424 
L 362.983818 46.412489 
L 363.720548 41.01094 
L 364.352032 41.01094 
L 365.088762 40.110682 
L 365.825493 37.409907 
L 366.456977 38.310166 
L 367.509449 36.509649 
L 368.24618 36.509649 
L 368.877663 39.210424 
L 369.614394 38.310166 
L 370.456371 36.509649 
L 371.087855 48.213005 
L 371.824585 47.312747 
L 372.561316 50.013522 
L 373.192799 38.310166 
L 373.824283 37.409907 
L 374.666261 37.409907 
L 375.192497 40.110682 
L 377.297442 42.811456 
L 378.034172 41.911198 
L 378.665656 39.210424 
L 380.03387 41.01094 
L 380.665353 37.409907 
L 382.033567 39.210424 
L 382.665051 37.409907 
L 383.612276 42.811456 
L 384.349006 43.711714 
L 385.190984 33.808875 
L 385.822468 39.210424 
L 386.559198 50.91378 
L 387.190682 39.210424 
L 388.032659 43.711714 
L 388.664143 36.509649 
L 389.400873 41.911198 
L 390.032357 32.008358 
L 390.66384 41.911198 
L 391.295324 40.110682 
L 392.137302 41.01094 
L 392.768785 46.412489 
L 393.400268 35.609391 
L 394.242246 35.609391 
L 394.87373 32.908617 
L 395.61046 33.808875 
L 396.347191 50.91378 
L 396.978674 41.01094 
L 398.452136 42.811456 
L 399.083619 38.310166 
L 399.925597 38.310166 
L 400.55708 40.110682 
L 401.293811 37.409907 
L 401.925294 43.711714 
L 402.556778 40.110682 
L 403.293508 37.409907 
L 403.924992 38.310166 
L 404.556475 41.911198 
L 405.293206 42.811456 
L 406.029936 39.210424 
L 406.66142 37.409907 
L 407.292903 37.409907 
L 407.924387 39.210424 
L 408.661117 43.711714 
L 409.292601 32.908617 
L 409.924084 41.01094 
L 410.660815 37.409907 
L 411.292298 37.409907 
L 412.029029 40.110682 
L 412.660512 43.711714 
L 413.291996 37.409907 
L 414.028726 35.609391 
L 414.66021 40.110682 
L 415.39694 37.409907 
L 416.133671 43.711714 
L 416.870402 39.210424 
L 417.501885 42.811456 
L 418.343863 37.409907 
L 419.712077 44.611973 
L 420.448807 44.611973 
L 421.080291 37.409907 
L 421.817021 33.808875 
L 422.553752 41.01094 
L 423.290483 46.412489 
L 423.921966 32.908617 
L 424.55345 38.310166 
L 425.184933 35.609391 
L 426.026911 41.01094 
L 426.658394 40.110682 
L 427.289878 36.509649 
L 428.026608 42.811456 
L 428.658092 40.110682 
L 429.289575 41.01094 
L 430.763036 34.709133 
L 431.605014 38.310166 
L 432.341745 39.210424 
L 432.973228 38.310166 
L 433.709959 35.609391 
L 434.341442 37.409907 
L 435.078173 37.409907 
L 436.446387 49.113263 
L 437.183118 37.409907 
L 437.814601 44.611973 
L 438.446084 39.210424 
L 439.182815 40.110682 
L 439.814298 41.911198 
L 440.551029 34.709133 
L 441.28776 41.911198 
L 442.655974 40.110682 
L 443.287457 42.811456 
L 444.024188 41.911198 
L 444.760918 37.409907 
L 445.392402 45.512231 
L 446.023885 44.611973 
L 446.865863 38.310166 
L 447.707841 40.110682 
L 448.549819 36.509649 
L 449.391797 44.611973 
L 450.02328 41.911198 
L 450.760011 37.409907 
L 451.391494 42.811456 
L 452.128225 34.709133 
L 452.864955 35.609391 
L 454.127922 42.811456 
L 454.759406 37.409907 
L 455.496136 37.409907 
L 456.12762 40.110682 
L 457.390587 41.911198 
L 458.127317 41.01094 
L 458.758801 41.01094 
L 459.390284 37.409907 
L 460.232262 40.110682 
L 460.968992 41.911198 
L 461.600476 41.911198 
L 462.337206 39.210424 
L 462.96869 49.113263 
L 463.705421 40.110682 
L 464.547398 44.611973 
L 466.547096 33.808875 
L 467.283826 36.509649 
L 468.020557 43.711714 
L 468.652041 43.711714 
L 469.283524 37.409907 
L 470.125502 35.609391 
L 470.756985 37.409907 
L 471.388469 40.110682 
L 472.125199 37.409907 
L 472.756683 38.310166 
L 473.388166 42.811456 
L 474.124897 41.911198 
L 474.75638 39.210424 
L 475.493111 33.808875 
L 476.124594 38.310166 
L 476.756078 34.709133 
L 477.598055 34.709133 
L 478.229539 45.512231 
L 478.966269 44.611973 
L 479.703 40.110682 
L 480.544978 140.039337 
L 480.544978 140.039337 
" clip-path="url(#pd65812e660)" style="fill: none; stroke: #2b7a78; stroke-width: 1.6; stroke-linecap: square"/>
   </g>
   <g id="line2d_30">
    <path d="M 38.285577 40.068879 
L 501.604949 40.068879 
" clip-path="url(#pd65812e660)" style="fill: none; stroke-dasharray: 3.7,1.6; stroke-dashoffset: 0; stroke: #222222"/>
   </g>
   <g id="patch_3">
    <path d="M 38.285577 217.461538 
L 38.285577 25.661538 
" style="fill: none; stroke: #000000; stroke-width: 0.8; stroke-linejoin: miter; stroke-linecap: square"/>
   </g>
   <g id="patch_4">
    <path d="M 38.285577 217.461538 
L 501.604949 217.461538 
" style="fill: none; stroke: #000000; stroke-width: 0.8; stroke-linejoin: miter; stroke-linecap: square"/>
   </g>
   <g id="text_17">
    <!-- Potencia del chasis durante HPL 4 nodos -->
    <g transform="translate(148.106826 19.661538) scale(0.12 -0.12)">
     <defs>
      <path id="DejaVuSans-61" d="M 2194 1759 
Q 1497 1759 1228 1600 
Q 959 1441 959 1056 
Q 959 750 1161 570 
Q 1363 391 1709 391 
Q 2188 391 2477 730 
Q 2766 1069 2766 1631 
L 2766 1759 
L 2194 1759 
z
M 3341 1997 
L 3341 0 
L 2766 0 
L 2766 531 
Q 2569 213 2275 61 
Q 1981 -91 1556 -91 
Q 1019 -91 701 211 
Q 384 513 384 1019 
Q 384 1609 779 1909 
Q 1175 2209 1959 2209 
L 2766 2209 
L 2766 2266 
Q 2766 2663 2505 2880 
Q 2244 3097 1772 3097 
Q 1472 3097 1187 3025 
Q 903 2953 641 2809 
L 641 3341 
Q 956 3463 1253 3523 
Q 1550 3584 1831 3584 
Q 2591 3584 2966 3190 
Q 3341 2797 3341 1997 
z
" transform="scale(0.015625)"/>
      <path id="DejaVuSans-6c" d="M 603 4863 
L 1178 4863 
L 1178 0 
L 603 0 
L 603 4863 
z
" transform="scale(0.015625)"/>
      <path id="DejaVuSans-68" d="M 3513 2113 
L 3513 0 
L 2938 0 
L 2938 2094 
Q 2938 2591 2744 2837 
Q 2550 3084 2163 3084 
Q 1697 3084 1428 2787 
Q 1159 2491 1159 1978 
L 1159 0 
L 581 0 
L 581 4863 
L 1159 4863 
L 1159 2956 
Q 1366 3272 1645 3428 
Q 1925 3584 2291 3584 
Q 2894 3584 3203 3211 
Q 3513 2838 3513 2113 
z
" transform="scale(0.015625)"/>
      <path id="DejaVuSans-72" d="M 2631 2963 
Q 2534 3019 2420 3045 
Q 2306 3072 2169 3072 
Q 1681 3072 1420 2755 
Q 1159 2438 1159 1844 
L 1159 0 
L 581 0 
L 581 3500 
L 1159 3500 
L 1159 2956 
Q 1341 3275 1631 3429 
Q 1922 3584 2338 3584 
Q 2397 3584 2469 3576 
Q 2541 3569 2628 3553 
L 2631 2963 
z
" transform="scale(0.015625)"/>
     </defs>
     <use xlink:href="#DejaVuSans-50"/>
     <use xlink:href="#DejaVuSans-6f" x="56.677734"/>
     <use xlink:href="#DejaVuSans-74" x="117.859375"/>
     <use xlink:href="#DejaVuSans-65" x="157.068359"/>
     <use xlink:href="#DejaVuSans-6e" x="218.591797"/>
     <use xlink:href="#DejaVuSans-63" x="281.970703"/>
     <use xlink:href="#DejaVuSans-69" x="336.951172"/>
     <use xlink:href="#DejaVuSans-61" x="364.734375"/>
     <use xlink:href="#DejaVuSans-20" x="426.013672"/>
     <use xlink:href="#DejaVuSans-64" x="457.800781"/>
     <use xlink:href="#DejaVuSans-65" x="521.277344"/>
     <use xlink:href="#DejaVuSans-6c" x="582.800781"/>
     <use xlink:href="#DejaVuSans-20" x="610.583984"/>
     <use xlink:href="#DejaVuSans-63" x="642.371094"/>
     <use xlink:href="#DejaVuSans-68" x="697.351562"/>
     <use xlink:href="#DejaVuSans-61" x="760.730469"/>
     <use xlink:href="#DejaVuSans-73" x="822.009766"/>
     <use xlink:href="#DejaVuSans-69" x="874.109375"/>
     <use xlink:href="#DejaVuSans-73" x="901.892578"/>
     <use xlink:href="#DejaVuSans-20" x="953.992188"/>
     <use xlink:href="#DejaVuSans-64" x="985.779297"/>
     <use xlink:href="#DejaVuSans-75" x="1049.255859"/>
     <use xlink:href="#DejaVuSans-72" x="1112.634766"/>
     <use xlink:href="#DejaVuSans-61" x="1153.748047"/>
     <use xlink:href="#DejaVuSans-6e" x="1215.027344"/>
     <use xlink:href="#DejaVuSans-74" x="1278.40625"/>
     <use xlink:href="#DejaVuSans-65" x="1317.615234"/>
     <use xlink:href="#DejaVuSans-20" x="1379.138672"/>
     <use xlink:href="#DejaVuSans-48" x="1410.925781"/>
     <use xlink:href="#DejaVuSans-50" x="1486.121094"/>
     <use xlink:href="#DejaVuSans-4c" x="1546.423828"/>
     <use xlink:href="#DejaVuSans-20" x="1602.136719"/>
     <use xlink:href="#DejaVuSans-34" x="1633.923828"/>
     <use xlink:href="#DejaVuSans-20" x="1697.546875"/>
     <use xlink:href="#DejaVuSans-6e" x="1729.333984"/>
     <use xlink:href="#DejaVuSans-6f" x="1792.712891"/>
     <use xlink:href="#DejaVuSans-64" x="1853.894531"/>
     <use xlink:href="#DejaVuSans-6f" x="1917.371094"/>
     <use xlink:href="#DejaVuSans-73" x="1978.552734"/>
    </g>
   </g>
   <g id="legend_1">
    <g id="line2d_31">
     <path d="M 47.285577 202.881851 
L 57.285577 202.881851 
L 67.285577 202.881851 
" style="fill: none; stroke-dasharray: 3.7,1.6; stroke-dashoffset: 0; stroke: #222222"/>
    </g>
    <g id="text_18">
     <!-- Media 4.93 kW -->
     <g transform="translate(75.285577 206.381851) scale(0.1 -0.1)">
      <defs>
       <path id="DejaVuSans-2e" d="M 684 794 
L 1344 794 
L 1344 0 
L 684 0 
L 684 794 
z
" transform="scale(0.015625)"/>
       <path id="DejaVuSans-39" d="M 703 97 
L 703 672 
Q 941 559 1184 500 
Q 1428 441 1663 441 
Q 2288 441 2617 861 
Q 2947 1281 2994 2138 
Q 2813 1869 2534 1725 
Q 2256 1581 1919 1581 
Q 1219 1581 811 2004 
Q 403 2428 403 3163 
Q 403 3881 828 4315 
Q 1253 4750 1959 4750 
Q 2769 4750 3195 4129 
Q 3622 3509 3622 2328 
Q 3622 1225 3098 567 
Q 2575 -91 1691 -91 
Q 1453 -91 1209 -44 
Q 966 3 703 97 
z
M 1959 2075 
Q 2384 2075 2632 2365 
Q 2881 2656 2881 3163 
Q 2881 3666 2632 3958 
Q 2384 4250 1959 4250 
Q 1534 4250 1286 3958 
Q 1038 3666 1038 3163 
Q 1038 2656 1286 2365 
Q 1534 2075 1959 2075 
z
" transform="scale(0.015625)"/>
      </defs>
      <use xlink:href="#DejaVuSans-4d"/>
      <use xlink:href="#DejaVuSans-65" x="86.279297"/>
      <use xlink:href="#DejaVuSans-64" x="147.802734"/>
      <use xlink:href="#DejaVuSans-69" x="211.279297"/>
      <use xlink:href="#DejaVuSans-61" x="239.0625"/>
      <use xlink:href="#DejaVuSans-20" x="300.341797"/>
      <use xlink:href="#DejaVuSans-34" x="332.128906"/>
      <use xlink:href="#DejaVuSans-2e" x="395.751953"/>
      <use xlink:href="#DejaVuSans-39" x="427.539062"/>
      <use xlink:href="#DejaVuSans-33" x="491.162109"/>
      <use xlink:href="#DejaVuSans-20" x="554.785156"/>
      <use xlink:href="#DejaVuSans-6b" x="586.572266"/>
      <use xlink:href="#DejaVuSans-57" x="644.482422"/>
     </g>
    </g>
   </g>
  </g>
 </g>
 <defs>
  <clipPath id="pd65812e660">
   <rect x="38.285577" y="25.661538" width="463.319372" height="191.8"/>
  </clipPath>
 </defs>
</svg>
